<svg xmlns="http://www.w3.org/2000/svg" viewBox="0 0 100 100">
  <defs>
    <linearGradient id="g" x1="0%" y1="0%" x2="100%" y2="100%">
      <stop offset="0%" stop-color="#ff6b35"/>
      <stop offset="55%" stop-color="#ff206e"/>
      <stop offset="100%" stop-color="#00d9c0"/>
    </linearGradient>
  </defs>
  <rect width="100" height="100" rx="20" fill="#0f1117"/>
  <line x1="50" y1="57" x2="50" y2="88" stroke="url(#g)" stroke-width="2.5" stroke-linecap="round"/>
  <path d="M50 72 Q62 66 59 56" fill="none" stroke="url(#g)" stroke-width="2" stroke-linecap="round"/>
  <g stroke="url(#g)" stroke-width="1.5" stroke-linecap="round">
    <line x1="50" y1="42" x2="50" y2="20"/>
    <line x1="50" y1="42" x2="59.6" y2="23.4"/>
    <line x1="50" y1="42" x2="67.2" y2="31.6"/>
    <line x1="50" y1="42" x2="70" y2="42"/>
    <line x1="50" y1="42" x2="67.2" y2="52.4"/>
    <line x1="50" y1="42" x2="59.6" y2="60.6"/>
    <line x1="50" y1="42" x2="40.4" y2="60.6"/>
    <line x1="50" y1="42" x2="32.8" y2="52.4"/>
    <line x1="50" y1="42" x2="30" y2="42"/>
    <line x1="50" y1="42" x2="32.8" y2="31.6"/>
    <line x1="50" y1="42" x2="40.4" y2="23.4"/>
  </g>
  <g fill="url(#g)">
    <circle cx="50" cy="20" r="2.2"/>
    <circle cx="59.6" cy="23.4" r="2.2"/>
    <circle cx="67.2" cy="31.6" r="2.2"/>
    <circle cx="70" cy="42" r="2.2"/>
    <circle cx="67.2" cy="52.4" r="2.2"/>
    <circle cx="59.6" cy="60.6" r="2.2"/>
    <circle cx="40.4" cy="60.6" r="2.2"/>
    <circle cx="32.8" cy="52.4" r="2.2"/>
    <circle cx="30" cy="42" r="2.2"/>
    <circle cx="32.8" cy="31.6" r="2.2"/>
    <circle cx="40.4" cy="23.4" r="2.2"/>
  </g>
  <circle cx="50" cy="42" r="4" fill="url(#g)"/>
</svg>
